<svg width="12" height="11" viewBox="0 0 12 11" fill="none" xmlns="http://www.w3.org/2000/svg">
<path fill-rule="evenodd" clip-rule="evenodd" d="M11.7832 0.176758C11.6855 0.0791016 11.5273 0.0791016 11.4297 0.176758L6.35547 5.25195L1.2998 0.196289C1.20215 0.0986328 1.04395 0.0986328 0.946289 0.196289C0.848633 0.293945 0.848633 0.452148 0.946289 0.549805L6.00195 5.60547L1.17676 10.4297C1.0791 10.5273 1.0791 10.6855 1.17676 10.7832C1.27441 10.8809 1.43262 10.8809 1.53027 10.7832L6.35547 5.95898L11.1992 10.8027C11.2969 10.9004 11.4551 10.9004 11.5527 10.8027C11.6504 10.7051 11.6504 10.5469 11.5527 10.4492L6.70898 5.60547L11.7832 0.530273C11.8809 0.432617 11.8809 0.274414 11.7832 0.176758Z" fill="black"/>
</svg>
